<svg xmlns="http://www.w3.org/2000/svg" width="800" height="800" viewBox="0 0 800 800" role="img" aria-label="日漫赛璐璐 示例图（占位）">
  <defs>
    <linearGradient id="bg" x1="0" y1="0" x2="1" y2="1">
      <stop offset="0" stop-color="#F97316" />
      <stop offset="1" stop-color="#EF4444" />
    </linearGradient>
  </defs>
  <rect width="800" height="800" rx="72" fill="url(#bg)" />
  <g opacity="0.22">
    <path d="M0 520C140 430 240 360 380 360c170 0 250 120 420 200v240H0z" fill="#000000" />
    <path d="M0 620c160-70 260-110 420-90 180 22 240 80 380 140v130H0z" fill="#FFFFFF" />
  </g>
  <g fill="#FFFFFF">
    <text x="64" y="120" font-size="52" font-family="system-ui, -apple-system, Segoe UI, Roboto, sans-serif" font-weight="800">日漫赛璐璐</text>
    <text x="64" y="168" font-size="22" font-family="system-ui, -apple-system, Segoe UI, Roboto, sans-serif" opacity="0.9">style-pack sample (placeholder)</text>
  </g>
  <g fill="none" stroke="#FFFFFF" stroke-opacity="0.6" stroke-width="12">
    <path d="M244 612c14-92 94-162 190-162s176 70 190 162" />
    <path d="M334 322c0-60 46-108 102-108s102 48 102 108" />
  </g>
</svg>
